HIERARCHY
ROOT Hips
{
	OFFSET 0.000000 0.000000 0.000000
	CHANNELS 6 Xposition Yposition Zposition Xrotation Yrotation Zrotation
	JOINT LeftUpLeg_virtual
	{
		OFFSET 0.000000 0.000000 0.000000
		CHANNELS 3 Xrotation Yrotation Zrotation
		JOINT LeftUpLeg
		{
			OFFSET 10.205400 -3.823500 0.155100
			CHANNELS 3 Xrotation Yrotation Zrotation
			JOINT LeftLeg
			{
				OFFSET 0.708757 -12.982077 0.567790
				CHANNELS 3 Xrotation Yrotation Zrotation
				JOINT LeftFoot
				{
					OFFSET -0.708756 -10.717838 -2.184338
					CHANNELS 3 Xrotation Yrotation Zrotation
					JOINT LeftToeBase
					{
						OFFSET 0.108149 -7.191104 7.560241
						CHANNELS 3 Xrotation Yrotation Zrotation
						JOINT LeftToe_End
						{
							OFFSET 0.070230 0.081724 4.490308
							CHANNELS 3 Xrotation Yrotation Zrotation
							End Site
							{
								OFFSET 0 0 0
							}
						}
					}
				}
			}
		}
	}
	JOINT RightUpLeg_virtual
	{
		OFFSET 0.000000 0.000000 0.000000
		CHANNELS 3 Xrotation Yrotation Zrotation
		JOINT RightUpLeg
		{
			OFFSET -10.205400 -3.823500 0.005500
			CHANNELS 3 Xrotation Yrotation Zrotation
			JOINT RightLeg
			{
				OFFSET -0.708756 -12.982134 0.610632
				CHANNELS 3 Xrotation Yrotation Zrotation
				JOINT RightFoot
				{
					OFFSET 0.708754 -10.717769 -1.945823
					CHANNELS 3 Xrotation Yrotation Zrotation
					JOINT RightToeBase
					{
						OFFSET -0.108140 -7.191069 7.372968
						CHANNELS 3 Xrotation Yrotation Zrotation
						JOINT RightToe_End
						{
							OFFSET -0.070227 0.081735 4.479403
							CHANNELS 3 Xrotation Yrotation Zrotation
							End Site
							{
								OFFSET 0 0 0
							}
						}
					}
				}
			}
		}
	}
	JOINT Spine_virtual
	{
		OFFSET 0.000000 0.000000 0.000000
		CHANNELS 3 Xrotation Yrotation Zrotation
		JOINT Spine
		{
			OFFSET 0.000000 6.876099 0.125700
			CHANNELS 3 Xrotation Yrotation Zrotation
			JOINT Spine1
			{
				OFFSET 0.000000 5.730043 0.104720
				CHANNELS 3 Xrotation Yrotation Zrotation
				JOINT Spine1_split
				{
					OFFSET 0.000000 5.730043 0.104720
					CHANNELS 3 Xrotation Yrotation Zrotation
					JOINT Spine2
					{
						OFFSET 0.000000 5.730043 0.104720
						CHANNELS 3 Xrotation Yrotation Zrotation
						JOINT Neck_virtual
						{
							OFFSET 0.000000 0.000000 0.000000
							CHANNELS 3 Xrotation Yrotation Zrotation
							JOINT Neck
							{
								OFFSET 0.000000 10.314075 0.188496
								CHANNELS 3 Xrotation Yrotation Zrotation
								JOINT Head
								{
									OFFSET 0.000000 7.643700 -2.377400
									CHANNELS 3 Xrotation Yrotation Zrotation
									JOINT HeadTop_End
									{
										OFFSET 0.000000 43.788605 -13.619600
										CHANNELS 3 Xrotation Yrotation Zrotation
										End Site
										{
											OFFSET 0 0 0
										}
									}
								}
							}
						}
						JOINT LeftShoulder_virtual
						{
							OFFSET 0.000000 0.000000 0.000000
							CHANNELS 3 Xrotation Yrotation Zrotation
							JOINT LeftShoulder
							{
								OFFSET 2.196100 4.412489 0.087492
								CHANNELS 3 Xrotation Yrotation Zrotation
								JOINT LeftShoulder_split
								{
									OFFSET 2.196100 4.412489 0.087492
									CHANNELS 3 Xrotation Yrotation Zrotation
									JOINT LeftArm
									{
										OFFSET 8.771219 -2.981674 -0.026999
										CHANNELS 3 Xrotation Yrotation Zrotation
										JOINT LeftForeArm
										{
											OFFSET 8.512804 0.000000 -0.000000
											CHANNELS 3 Xrotation Yrotation Zrotation
											JOINT LeftHand
											{
												OFFSET 18.484802 0.000000 -0.000000
												CHANNELS 3 Xrotation Yrotation Zrotation
												End Site
												{
													OFFSET 0 0 0
												}
											}
										}
									}
								}
							}
						}
						JOINT RightShoulder_virtual
						{
							OFFSET 0.000000 0.000000 0.000000
							CHANNELS 3 Xrotation Yrotation Zrotation
							JOINT RightShoulder
							{
								OFFSET -2.196100 4.412496 0.070690
								CHANNELS 3 Xrotation Yrotation Zrotation
								JOINT RightShoulder_split
								{
									OFFSET -2.196100 4.412496 0.070690
									CHANNELS 3 Xrotation Yrotation Zrotation
									JOINT RightArm
									{
										OFFSET -8.771282 -2.981682 -0.094208
										CHANNELS 3 Xrotation Yrotation Zrotation
										JOINT RightForeArm
										{
											OFFSET -8.494598 0.000000 0.000000
											CHANNELS 3 Xrotation Yrotation Zrotation
											JOINT RightHand
											{
												OFFSET -18.483803 0.000000 0.000001
												CHANNELS 3 Xrotation Yrotation Zrotation
												End Site
												{
													OFFSET 0 0 0
												}
											}
										}
									}
								}
							}
						}
					}
				}
			}
		}
	}
}
MOTION
Frames: 8
Frame Time: 0.03333333
-14.771844 32.640167 -13.579458 0.000000 0.000000 0.000000 4.661120 -3.318822 0.614831 -40.967799 2.663103 9.476650 40.915907 8.144768 -0.316758 9.607668 11.328568 -3.699493 -4.341895 0.179594 0.680825 0.000000 0.000000 0.000000 5.526291 -3.207338 0.517124 5.948314 -13.375902 -7.732245 21.277380 -5.938027 1.133754 -19.045723 -7.669447 19.367343 -14.607073 0.760983 0.522191 0.000000 0.000000 0.000000 4.822214 -2.256419 -0.698480 2.323299 1.578930 -4.243640 2.117113 2.265810 -0.795451 0.849346 0.164353 0.101258 0.000000 0.000000 0.000000 2.311869 2.305077 -1.179294 1.183554 0.664014 1.015381 -1.415968 11.481761 3.226927 0.000000 0.000000 0.000000 1.512282 2.292404 -1.558498 0.546842 -2.770340 -12.265834 -1.446926 0.175299 1.797280 -11.387033 22.984799 -35.757553 -0.716534 -62.996570 0.090630 0.000000 0.000000 0.000000 1.872663 2.683386 -0.581155 1.067121 -3.034783 10.055202 2.177042 2.024191 -3.016989 -15.247788 -16.510430 46.856064 0.267624 15.585781 -0.069198 0.000000 0.000000 0.000000 
-14.509228 33.002647 -13.666925 0.000000 0.000000 0.000000 4.929554 -3.542194 1.090596 -36.900374 0.620882 13.373115 45.241295 8.379966 -0.574228 7.398164 14.405632 -0.542090 -1.394555 0.708369 -3.421115 0.000000 0.000000 0.000000 6.138112 -3.105697 0.899505 4.624614 -14.657484 -10.951064 20.839151 -5.022341 1.933528 -16.821769 -5.095688 18.888473 -16.221436 0.808964 0.317524 0.000000 0.000000 0.000000 5.104289 -1.711805 -0.248013 2.209375 2.255825 -4.796090 1.588606 3.181199 -1.234204 0.640805 -0.104525 0.295965 0.000000 0.000000 0.000000 1.803063 3.150427 -1.482882 0.610536 0.342114 1.736877 -1.919088 9.377708 3.586937 0.000000 0.000000 0.000000 1.062237 3.204326 -2.022485 0.836404 -2.800101 -12.776101 -1.786067 -0.170355 2.024547 2.511838 29.099963 -42.957184 -0.195006 -65.092618 0.347779 0.000000 0.000000 0.000000 1.487100 3.577476 -1.026082 1.054016 -2.846068 9.350235 2.839061 1.747546 -2.830332 -17.570877 -16.517383 44.704777 0.295020 16.998753 -0.399861 0.000000 0.000000 0.000000 
-14.160666 33.254433 -13.686033 0.000000 0.000000 0.000000 5.573783 -3.660134 0.875689 -32.090223 -1.027724 18.603011 46.026545 9.639711 -0.951057 6.079950 18.054917 3.057107 2.823224 1.031392 -7.959197 0.000000 0.000000 0.000000 6.857718 -2.734653 0.731287 5.086202 -14.816740 -13.261012 18.674574 -4.254975 2.584003 -16.479320 -3.327235 17.756429 -16.115640 0.686385 0.556203 0.000000 0.000000 0.000000 5.762046 -1.290741 -0.261104 1.851522 2.792455 -5.003219 0.972605 3.941326 -1.509809 0.630863 -0.114620 0.340835 0.000000 0.000000 0.000000 1.103314 3.848025 -1.661181 -0.028277 0.027777 2.318622 -1.908933 7.041397 3.994029 0.000000 0.000000 0.000000 0.517380 3.948394 -2.262108 1.071446 -2.692015 -12.331050 -2.254466 -0.823436 1.998474 14.768737 32.907203 -50.296212 0.384261 -64.191142 0.712249 0.000000 0.000000 0.000000 1.032106 4.314824 -1.319830 1.102223 -2.825227 8.767571 3.068990 1.591381 -2.396985 -19.298068 -17.117904 42.737890 0.180599 18.077554 -0.575715 0.000000 0.000000 0.000000 
-13.714285 33.352734 -13.639791 0.000000 0.000000 0.000000 6.505695 -3.001349 -0.017947 -27.069628 -1.817893 24.627365 43.662131 11.104811 -1.062781 5.259807 20.759303 5.162183 5.259658 1.139744 -11.405163 0.000000 0.000000 0.000000 7.438895 -1.521040 -0.059376 7.206964 -13.957352 -14.259139 15.034857 -3.680314 2.909701 -16.936328 -2.465492 17.560806 -15.650328 0.482874 0.786528 0.000000 0.000000 0.000000 6.652122 -0.350336 -0.736565 1.333854 3.161880 -4.818794 0.351574 4.447454 -1.637252 1.043224 0.038019 0.568804 0.000000 0.000000 0.000000 0.352036 4.303237 -1.729934 -0.631744 -0.308942 2.649244 -1.442227 4.606595 4.420298 0.000000 0.000000 0.000000 -0.049150 4.412274 -2.279401 1.243191 -2.540841 -11.132653 -2.901678 -1.227969 1.445734 23.026518 35.242943 -55.956000 0.750556 -60.664046 0.980761 0.000000 0.000000 0.000000 0.567053 4.793457 -1.457280 1.189502 -2.881133 8.317449 2.836777 1.554600 -1.577724 -20.459796 -18.107557 40.691593 -0.010851 19.019536 -0.565525 0.000000 0.000000 0.000000 
-13.107010 33.238960 -13.603338 0.000000 0.000000 0.000000 7.376031 -0.821158 -1.224363 -23.182869 -1.319973 30.537448 39.838383 11.661490 -0.874152 4.992451 20.957920 4.141316 4.362674 1.318295 -12.646571 0.000000 0.000000 0.000000 7.925599 0.966709 -1.258317 10.016335 -12.542134 -14.262456 10.521043 -3.206371 2.761135 -17.480481 -2.592978 19.545353 -15.828161 0.267928 0.510593 0.000000 0.000000 0.000000 7.581171 1.287987 -1.487672 0.835492 3.347007 -4.278198 -0.207391 4.653040 -1.680526 1.403560 0.480163 0.601768 0.000000 0.000000 0.000000 -0.366097 4.469950 -1.737926 -1.070653 -0.708322 2.717022 -0.710078 2.367850 4.778017 0.000000 0.000000 0.000000 -0.574268 4.565540 -2.142861 1.337358 -2.357666 -9.431963 -3.610171 -1.368425 0.527885 26.860965 37.173079 -59.132875 0.790035 -54.736743 1.030934 0.000000 0.000000 0.000000 0.169761 4.961659 -1.487584 1.291085 -3.028420 8.013992 2.431334 1.385003 -0.612063 -20.939499 -19.157132 38.529357 -0.175475 20.025621 -0.419801 0.000000 0.000000 0.000000 
-12.323279 32.940979 -13.542219 0.000000 0.000000 0.000000 8.193257 2.723348 -2.329336 -21.121156 0.038884 35.316750 36.046771 10.692686 -0.580824 5.532082 18.042298 -0.716787 0.142357 1.551053 -11.050904 0.000000 0.000000 0.000000 8.241940 4.572003 -2.380724 12.873370 -11.052936 -13.890685 6.552370 -2.782996 2.213525 -18.253334 -3.704001 23.232639 -16.133288 0.119842 -0.415063 0.000000 0.000000 0.000000 8.302220 3.849331 -2.149952 0.432931 3.343547 -3.564941 -0.640830 4.563156 -1.697892 1.594573 1.046866 0.452181 0.000000 0.000000 0.000000 -0.985327 4.359993 -1.741531 -1.330983 -1.157653 2.600867 0.091988 0.511385 5.002441 0.000000 0.000000 0.000000 -0.987508 4.444845 -1.952140 1.369865 -2.259855 -7.672190 -4.398778 -1.149813 -0.771535 27.037838 39.138801 -59.891989 0.495855 -47.094212 0.868772 0.000000 0.000000 0.000000 -0.145053 4.824852 -1.492400 1.361594 -3.272105 7.806800 2.012906 1.239416 0.416848 -20.812997 -19.999559 36.295277 -0.141854 21.213097 -0.314211 0.000000 0.000000 0.000000 
-11.344071 32.533913 -13.513334 0.000000 0.000000 0.000000 8.703834 7.016920 -2.845315 -20.415394 1.625040 38.042924 33.240786 8.585904 -0.258359 5.478870 13.010723 -7.736198 -5.096439 1.381933 -7.408734 0.000000 0.000000 0.000000 8.441455 9.026325 -3.011143 15.244368 -10.130738 -13.894973 4.616541 -3.034602 1.452437 -19.489106 -5.821637 26.266771 -14.935892 0.032925 -1.575517 0.000000 0.000000 0.000000 8.727815 7.399606 -2.452820 0.166017 3.176181 -2.974210 -0.957837 4.250034 -1.709743 1.634058 1.412459 0.269527 0.000000 0.000000 0.000000 -1.462987 4.038197 -1.754537 -1.508226 -1.650063 2.381554 0.722979 -0.767551 5.015579 0.000000 0.000000 0.000000 -1.230647 4.131225 -1.763299 1.373070 -2.247939 -6.271881 -4.675308 -0.705667 -1.882299 24.873027 40.543907 -58.583714 0.151199 -39.132350 0.646958 0.000000 0.000000 0.000000 -0.384907 4.464876 -1.507779 1.368002 -3.647593 7.772277 1.692960 1.274636 1.087809 -20.462535 -20.787087 34.402256 0.145128 22.724529 -0.383277 0.000000 0.000000 0.000000 
-10.163325 32.097229 -13.600477 0.000000 0.000000 0.000000 8.944650 11.571997 -2.530410 -20.439558 3.292417 38.259448 31.549282 6.393029 0.064266 3.429299 7.983859 -15.195906 -7.637804 0.753595 -3.361294 0.000000 0.000000 0.000000 8.565834 13.401974 -2.810842 16.536166 -9.905078 -15.010751 4.903898 -4.163080 0.458385 -21.655980 -8.709263 26.811143 -11.772702 -0.003398 -2.574935 0.000000 0.000000 0.000000 8.911285 11.181246 -2.165801 -0.031281 2.870986 -2.635316 -1.143757 3.814029 -1.705545 1.603279 1.590980 -0.148607 0.000000 0.000000 0.000000 -1.782081 3.608761 -1.776559 -1.630228 -2.112846 2.200473 1.146766 -1.362134 4.758060 0.000000 0.000000 0.000000 -1.305786 3.719511 -1.606104 1.342341 -2.338392 -5.471113 -4.631872 -0.434753 -2.546760 21.644036 40.888863 -56.103478 -0.178385 -32.037620 0.407017 0.000000 0.000000 0.000000 -0.535931 3.995708 -1.540184 1.308529 -4.139034 7.929769 1.308427 1.469975 1.248733 -20.544929 -21.521352 33.313906 0.617771 24.819709 -0.651103 0.000000 0.000000 0.000000 
